<?xml version="1.0" encoding="UTF-8"?>
<svg xmlns="http://www.w3.org/2000/svg" xmlns:xlink="http://www.w3.org/1999/xlink" width="18px" height="18px" viewBox="0 0 18 18" version="1.1">
<g id="surface1">
<path style=" stroke:none;fill-rule:nonzero;fill:rgb(0%,0%,0%);fill-opacity:1;" d="M 16.152344 5.332031 C 16.160156 5.492188 16.160156 5.652344 16.160156 5.8125 C 16.160156 10.6875 12.449219 16.308594 5.664062 16.308594 C 3.570312 16.308594 1.632812 15.703125 0 14.652344 C 0.296875 14.6875 0.582031 14.699219 0.890625 14.699219 C 2.617188 14.699219 4.199219 14.113281 5.46875 13.125 C 3.851562 13.089844 2.488281 12.027344 2.023438 10.5625 C 2.25 10.597656 2.476562 10.621094 2.71875 10.621094 C 3.046875 10.621094 3.378906 10.574219 3.6875 10.492188 C 1.996094 10.152344 0.730469 8.664062 0.730469 6.871094 L 0.730469 6.828125 C 1.222656 7.101562 1.792969 7.273438 2.398438 7.292969 C 1.402344 6.632812 0.753906 5.5 0.753906 4.222656 C 0.753906 3.535156 0.933594 2.90625 1.253906 2.359375 C 3.074219 4.597656 5.800781 6.0625 8.863281 6.21875 C 8.808594 5.945312 8.773438 5.660156 8.773438 5.375 C 8.773438 3.34375 10.417969 1.6875 12.460938 1.6875 C 13.519531 1.6875 14.480469 2.132812 15.15625 2.851562 C 15.988281 2.691406 16.789062 2.382812 17.496094 1.960938 C 17.222656 2.820312 16.640625 3.535156 15.875 3.992188 C 16.617188 3.914062 17.339844 3.707031 18 3.425781 C 17.496094 4.15625 16.867188 4.804688 16.152344 5.332031 Z M 16.152344 5.332031 "/>
</g>
</svg>
